<?xml version="1.0" encoding="UTF-8"?>
<!DOCTYPE svg PUBLIC "-//W3C//DTD SVG 1.1//EN" "http://www.w3.org/Graphics/SVG/1.1/DTD/svg11.dtd">
<svg xmlns="http://www.w3.org/2000/svg" version="1.1" width="366px" height="351px" style="shape-rendering:geometricPrecision; text-rendering:geometricPrecision; image-rendering:optimizeQuality; fill-rule:evenodd; clip-rule:evenodd" xmlns:xlink="http://www.w3.org/1999/xlink">
<g><path style="opacity:1" fill="#fefffe" d="M -0.5,-0.5 C 121.5,-0.5 243.5,-0.5 365.5,-0.5C 365.5,116.5 365.5,233.5 365.5,350.5C 243.5,350.5 121.5,350.5 -0.5,350.5C -0.5,233.5 -0.5,116.5 -0.5,-0.5 Z"/></g>
<g><path style="opacity:1" fill="#30ba55" d="M 179.5,22.5 C 245.128,23.7085 293.294,53.0418 324,110.5C 346.581,163.635 341.581,213.969 309,261.5C 270.709,309.716 220.875,329.882 159.5,322C 97.1093,309.395 55.9426,272.895 36,212.5C 21.839,145.358 42.0056,91.1916 96.5,50C 121.737,33.2793 149.403,24.1127 179.5,22.5 Z"/></g>
<g><path style="opacity:1" fill="#fefefe" d="M 170.5,35.5 C 219.919,32.3492 261.086,49.0158 294,85.5C 328.819,131.245 334.819,180.578 312,233.5C 287.897,279.001 250.064,304.834 198.5,311C 149.062,314.642 107.896,298.142 75,261.5C 40.1808,215.755 34.1808,166.422 57,113.5C 81.3183,68.0724 119.152,42.0724 170.5,35.5 Z"/></g>
<g><path style="opacity:1" fill="#ec2024" d="M 139.5,86.5 C 139.5,83.5 139.5,80.5 139.5,77.5C 138.325,77.281 137.325,77.6143 136.5,78.5C 135.626,80.7466 135.292,83.0799 135.5,85.5C 131.535,82.9717 130.701,79.6384 133,75.5C 138.977,70.898 143.144,72.2314 145.5,79.5C 144.917,83.081 142.917,85.4144 139.5,86.5 Z"/></g>
<g><path style="opacity:1" fill="#f2973c" d="M 139.5,86.5 C 137.455,102.865 141.955,117.198 153,129.5C 159.236,136.407 166.069,142.573 173.5,148C 193.764,150.457 210.264,143.623 223,127.5C 227.206,119.675 229.706,111.341 230.5,102.5C 230.337,100.143 230.503,97.8098 231,95.5C 232.011,94.6634 233.178,94.33 234.5,94.5C 234.5,97.5 234.5,100.5 234.5,103.5C 233.883,103.611 233.383,103.944 233,104.5C 231.845,119.649 225.345,131.815 213.5,141C 208.631,143.597 203.964,146.43 199.5,149.5C 202.745,156.324 206.245,162.991 210,169.5C 231.563,183.399 254.729,187.066 279.5,180.5C 282.455,179.841 285.455,179.508 288.5,179.5C 288.5,180.833 288.5,182.167 288.5,183.5C 285.763,183.401 283.096,183.735 280.5,184.5C 279.85,184.196 279.183,183.863 278.5,183.5C 262.029,187.867 245.696,187.367 229.5,182C 222.869,178.908 216.202,176.242 209.5,174C 205.521,180.152 202.188,186.652 199.5,193.5C 206.738,211.201 206.071,228.534 197.5,245.5C 197.208,248.801 195.541,250.801 192.5,251.5C 192.283,248.579 192.949,245.913 194.5,243.5C 204.367,227.434 205.034,210.934 196.5,194C 189.167,193.333 181.833,193.333 174.5,194C 169.226,204.716 163.059,214.883 156,224.5C 149.27,230.738 142.436,236.738 135.5,242.5C 133.202,244.461 130.535,245.461 127.5,245.5C 127.351,244.448 127.517,243.448 128,242.5C 129.992,241.672 131.492,240.339 132.5,238.5C 133.552,238.649 134.552,238.483 135.5,238C 146.237,231.053 155.07,222.219 162,211.5C 165.311,205.046 168.477,198.546 171.5,192C 167.167,185 162.833,178 158.5,171C 143.287,164.962 127.62,162.962 111.5,165C 105.057,167.777 100.223,172.277 97,178.5C 93.3906,185.496 90.8906,192.829 89.5,200.5C 85.2733,209.92 83.94,209.253 85.5,198.5C 88.6932,190.439 92.1932,182.439 96,174.5C 102.723,165.088 111.89,160.755 123.5,161.5C 135.865,161.924 147.865,164.258 159.5,168.5C 163.235,163.374 166.735,158.041 170,152.5C 170.667,151.5 170.667,150.5 170,149.5C 159.587,141.09 150.587,131.423 143,120.5C 138.137,109.313 135.637,97.6462 135.5,85.5C 135.292,83.0799 135.626,80.7466 136.5,78.5C 137.325,77.6143 138.325,77.281 139.5,77.5C 139.5,80.5 139.5,83.5 139.5,86.5 Z"/></g>
<g><path style="opacity:1" fill="#b93eb7" d="M 234.5,103.5 C 234.5,100.5 234.5,97.5 234.5,94.5C 233.178,94.33 232.011,94.6634 231,95.5C 230.503,97.8098 230.337,100.143 230.5,102.5C 226.535,99.9717 225.701,96.6384 228,92.5C 233.977,87.898 238.144,89.2314 240.5,96.5C 239.917,100.081 237.917,102.414 234.5,103.5 Z"/></g>
<g><path style="opacity:1" fill="#fefefd" d="M 173.5,151.5 C 181.528,151.169 189.528,151.502 197.5,152.5C 200.636,158.605 203.636,164.772 206.5,171C 203.636,177.228 200.636,183.395 197.5,189.5C 189.5,190.833 181.5,190.833 173.5,189.5C 170.032,183.397 166.699,177.231 163.5,171C 166.979,164.54 170.313,158.04 173.5,151.5 Z"/></g>
<g><path style="opacity:1" fill="#fff122" d="M 280.5,184.5 C 283.096,183.735 285.763,183.401 288.5,183.5C 288.5,182.167 288.5,180.833 288.5,179.5C 285.455,179.508 282.455,179.841 279.5,180.5C 281.613,174.513 285.613,173.013 291.5,176C 295.53,184.622 292.863,188.622 283.5,188C 281.574,187.578 280.574,186.411 280.5,184.5 Z"/></g>
<g><path style="opacity:1" fill="#feca27" d="M 85.5,198.5 C 83.94,209.253 85.2733,209.92 89.5,200.5C 93.6463,204.52 93.313,208.353 88.5,212C 81.3333,212.833 78.1667,209.667 79,202.5C 80.5707,200.077 82.7374,198.744 85.5,198.5 Z"/></g>
<g><path style="opacity:1" fill="#c9fd2c" d="M 132.5,238.5 C 131.492,240.339 129.992,241.672 128,242.5C 127.517,243.448 127.351,244.448 127.5,245.5C 130.535,245.461 133.202,244.461 135.5,242.5C 135.56,248.607 132.56,251.441 126.5,251C 121.566,248.335 120.399,244.502 123,239.5C 126.008,236.106 129.174,235.773 132.5,238.5 Z"/></g>
<g><path style="opacity:1" fill="#4649c8" d="M 194.5,243.5 C 192.949,245.913 192.283,248.579 192.5,251.5C 195.541,250.801 197.208,248.801 197.5,245.5C 200.699,247.978 201.199,250.978 199,254.5C 194.203,258.802 190.203,258.136 187,252.5C 186.366,246.963 188.866,243.963 194.5,243.5 Z"/></g>
</svg>
